HIERARCHY
ROOT Hips
{
    OFFSET   0.000000   0.000000   0.000000
    CHANNELS 6 Xposition Yposition Zposition Zrotation Xrotation Yrotation
    JOINT Chest
    {
        OFFSET   0.000000   8.007230   0.000000
        CHANNELS 3 Zrotation Xrotation Yrotation
        JOINT Chest2
        {
            OFFSET   0.000000  22.077100   0.000000
            CHANNELS 3 Zrotation Xrotation Yrotation
            JOINT Neck
            {
                OFFSET   0.000000  23.255100   0.000000
                CHANNELS 3 Zrotation Xrotation Yrotation
                JOINT Head
                {
                    OFFSET   0.000000  14.370100   1.956600
                    CHANNELS 3 Zrotation Xrotation Yrotation
                    End Site
                    {
                        OFFSET   0.000000  19.566000   0.000000
                    }
                }
            }
            JOINT LeftCollar
            {
                OFFSET   3.911900  19.017000  -0.467063
                CHANNELS 3 Zrotation Xrotation Yrotation
                JOINT LeftShoulder
                {
                    OFFSET  10.383700   0.000000   0.000000
                    CHANNELS 3 Zrotation Xrotation Yrotation
                    JOINT LeftElbow
                    {
                        OFFSET  26.662100   0.001193   0.000980
                        CHANNELS 3 Zrotation Xrotation Yrotation
                        JOINT LeftWrist
                        {
                            OFFSET  28.869000  -0.000059  -0.000082
                            CHANNELS 3 Zrotation Xrotation Yrotation
                            JOINT LeftFinger0
                            {
                                OFFSET   2.044650  -2.323450   3.252850
                                CHANNELS 3 Zrotation Xrotation Yrotation
                                JOINT LeftFinger01
                                {
                                    OFFSET   3.088130   0.000000   0.000000
                                    CHANNELS 3 Zrotation Xrotation Yrotation
                                    JOINT LeftFinger02
                                    {
                                        OFFSET   2.639460   0.000000   0.000000
                                        CHANNELS 3 Zrotation Xrotation Yrotation
                                        End Site
                                        {
                                            OFFSET   2.582190   0.000000   0.000000
                                        }
                                    }
                                }
                            }
                            JOINT LeftFinger1
                            {
                                OFFSET   8.364480   0.000000   3.252850
                                CHANNELS 3 Zrotation Xrotation Yrotation
                                JOINT LeftFinger11
                                {
                                    OFFSET   4.646930   0.000000   0.000000
                                    CHANNELS 3 Zrotation Xrotation Yrotation
                                    JOINT LeftFinger12
                                    {
                                        OFFSET   2.323470   0.000000   0.000000
                                        CHANNELS 3 Zrotation Xrotation Yrotation
                                        End Site
                                        {
                                            OFFSET   2.273050   0.000000   0.000000
                                        }
                                    }
                                }
                            }
                            JOINT LeftFinger2
                            {
                                OFFSET   8.364490   0.000016   1.078090
                                CHANNELS 3 Zrotation Xrotation Yrotation
                                JOINT LeftFinger21
                                {
                                    OFFSET   5.111610   0.000000   0.000000
                                    CHANNELS 3 Zrotation Xrotation Yrotation
                                    JOINT LeftFinger22
                                    {
                                        OFFSET   2.788150   0.000016   0.000000
                                        CHANNELS 3 Zrotation Xrotation Yrotation
                                        End Site
                                        {
                                            OFFSET   2.727660   0.000000   0.000000
                                        }
                                    }
                                }
                            }
                            JOINT LeftFinger3
                            {
                                OFFSET   7.899780   0.000015  -1.078090
                                CHANNELS 3 Zrotation Xrotation Yrotation
                                JOINT LeftFinger31
                                {
                                    OFFSET   4.646930   0.000000   0.000000
                                    CHANNELS 3 Zrotation Xrotation Yrotation
                                    JOINT LeftFinger32
                                    {
                                        OFFSET   2.323470   0.000000   0.000000
                                        CHANNELS 3 Zrotation Xrotation Yrotation
                                        End Site
                                        {
                                            OFFSET   2.273050   0.000000   0.000000
                                        }
                                    }
                                }
                            }
                            JOINT LeftFinger4
                            {
                                OFFSET   7.435090   0.000000  -3.252850
                                CHANNELS 3 Zrotation Xrotation Yrotation
                                JOINT LeftFinger41
                                {
                                    OFFSET   3.717550   0.000000   0.000000
                                    CHANNELS 3 Zrotation Xrotation Yrotation
                                    JOINT LeftFinger42
                                    {
                                        OFFSET   1.858770   0.000000   0.000000
                                        CHANNELS 3 Zrotation Xrotation Yrotation
                                        End Site
                                        {
                                            OFFSET   1.818440   0.000000   0.000000
                                        }
                                    }
                                }
                            }
                        }
                    }
                }
            }
            JOINT RightCollar
            {
                OFFSET  -3.911910  19.017000  -0.467062
                CHANNELS 3 Zrotation Xrotation Yrotation
                JOINT RightShoulder
                {
                    OFFSET -10.383700   0.000014   0.000000
                    CHANNELS 3 Zrotation Xrotation Yrotation
                    JOINT RightElbow
                    {
                        OFFSET -26.662100   0.001225   0.001091
                        CHANNELS 3 Zrotation Xrotation Yrotation
                        JOINT RightWrist
                        {
                            OFFSET -28.869000  -0.000020  -0.000085
                            CHANNELS 3 Zrotation Xrotation Yrotation
                            JOINT RightFinger0
                            {
                                OFFSET  -2.044650  -2.323490   3.252850
                                CHANNELS 3 Zrotation Xrotation Yrotation
                                JOINT RightFinger01
                                {
                                    OFFSET  -3.088130   0.000000   0.000000
                                    CHANNELS 3 Zrotation Xrotation Yrotation
                                    JOINT RightFinger02
                                    {
                                        OFFSET  -2.639460   0.000000   0.000000
                                        CHANNELS 3 Zrotation Xrotation Yrotation
                                        End Site
                                        {
                                            OFFSET  -2.582190   0.000000   0.000000
                                        }
                                    }
                                }
                            }
                            JOINT RightFinger1
                            {
                                OFFSET  -8.364480   0.000000   3.252850
                                CHANNELS 3 Zrotation Xrotation Yrotation
                                JOINT RightFinger11
                                {
                                    OFFSET  -4.646930   0.000000   0.000000
                                    CHANNELS 3 Zrotation Xrotation Yrotation
                                    JOINT RightFinger12
                                    {
                                        OFFSET  -2.323470   0.000000   0.000000
                                        CHANNELS 3 Zrotation Xrotation Yrotation
                                        End Site
                                        {
                                            OFFSET  -2.273050   0.000000   0.000000
                                        }
                                    }
                                }
                            }
                            JOINT RightFinger2
                            {
                                OFFSET  -8.364480   0.000000   1.078090
                                CHANNELS 3 Zrotation Xrotation Yrotation
                                JOINT RightFinger21
                                {
                                    OFFSET  -5.111620   0.000000   0.000000
                                    CHANNELS 3 Zrotation Xrotation Yrotation
                                    JOINT RightFinger22
                                    {
                                        OFFSET  -2.788160   0.000000   0.000000
                                        CHANNELS 3 Zrotation Xrotation Yrotation
                                        End Site
                                        {
                                            OFFSET  -2.727660   0.000000   0.000000
                                        }
                                    }
                                }
                            }
                            JOINT RightFinger3
                            {
                                OFFSET  -7.899780   0.000000  -1.078090
                                CHANNELS 3 Zrotation Xrotation Yrotation
                                JOINT RightFinger31
                                {
                                    OFFSET  -4.646930   0.000000   0.000000
                                    CHANNELS 3 Zrotation Xrotation Yrotation
                                    JOINT RightFinger32
                                    {
                                        OFFSET  -2.323470   0.000000   0.000000
                                        CHANNELS 3 Zrotation Xrotation Yrotation
                                        End Site
                                        {
                                            OFFSET  -2.273050   0.000000   0.000000
                                        }
                                    }
                                }
                            }
                            JOINT RightFinger4
                            {
                                OFFSET  -7.435090   0.000000  -3.252850
                                CHANNELS 3 Zrotation Xrotation Yrotation
                                JOINT RightFinger41
                                {
                                    OFFSET  -3.717550   0.000000   0.000000
                                    CHANNELS 3 Zrotation Xrotation Yrotation
                                    JOINT RightFinger42
                                    {
                                        OFFSET  -1.858760   0.000000   0.000000
                                        CHANNELS 3 Zrotation Xrotation Yrotation
                                        End Site
                                        {
                                            OFFSET  -1.818440   0.000000   0.000000
                                        }
                                    }
                                }
                            }
                        }
                    }
                }
            }
        }
    }
    JOINT LeftHip
    {
        OFFSET   9.783030   0.000000   0.000000
        CHANNELS 3 Zrotation Xrotation Yrotation
        JOINT LeftKnee
        {
            OFFSET   0.000063 -41.789100   0.000608
            CHANNELS 3 Zrotation Xrotation Yrotation
            JOINT LeftAnkle
            {
                OFFSET   0.000048 -41.133200  -0.000184
                CHANNELS 3 Zrotation Xrotation Yrotation
                JOINT LeftToe
                {
                    OFFSET   0.000000  -6.358960  14.674500
                    CHANNELS 3 Zrotation Xrotation Yrotation
                    End Site
                    {
                        OFFSET   0.000000   0.000000   3.913200
                    }
                }
            }
        }
    }
    JOINT RightHip
    {
        OFFSET  -9.783030   0.000000   0.000000
        CHANNELS 3 Zrotation Xrotation Yrotation
        JOINT RightKnee
        {
            OFFSET   0.000071 -41.789100   0.001239
            CHANNELS 3 Zrotation Xrotation Yrotation
            JOINT RightAnkle
            {
                OFFSET   0.000037 -41.133200  -0.000166
                CHANNELS 3 Zrotation Xrotation Yrotation
                JOINT RightToe
                {
                    OFFSET   0.000000  -6.358960  14.674500
                    CHANNELS 3 Zrotation Xrotation Yrotation
                    End Site
                    {
                        OFFSET   0.000000   0.000000   3.913200
                    }
                }
            }
        }
    }
}
MOTION
Frames: 6
Frame Time:   0.016667
  6.760350  88.894800   4.757670  -1.708290 -16.961400  -3.950840  -1.392060  11.043500   3.132280  -3.511190  21.987800   6.734960  -1.030030   0.468366   0.008330  -1.693050   0.948827   1.250560  -2.894760  -4.054720   1.934270 -67.605300  27.052600 -12.030300  -3.033770 -12.104600 -15.090200  17.528200  -3.879460   5.804180  35.696300  27.516900 -57.289000 -33.770800   0.004239   0.002903 -11.885400   0.001260  -0.009758 -32.464800   5.106200  -7.962530 -26.857500   0.000767   0.003454 -18.796500  -0.001072   0.001512 -28.746500  -0.177471   0.323588 -40.104900   0.000410   0.002258 -26.709900  -0.001622   0.001019 -28.687500  -0.177154   0.323760 -38.836000   0.002635  -0.004265 -25.864800   0.001664   0.001355 -31.181900  -0.191101   0.315785 -46.773700   0.000337  -0.002270 -31.151300  -0.003000  -0.000814   3.003210  -3.097960   7.893250  30.601600  -3.333560  59.904200 -44.766200 -19.896900  54.678200 -23.883100  38.060300  18.350100 -59.040400  54.333300 108.293000 -15.695000   0.000174   0.000113 -12.847500  -0.002091   0.003197  42.566000   7.190730   7.773130  35.225300   0.002076   0.001474  25.272100   0.000503   0.002359  31.414900   0.475347   0.778616  47.125600  -0.001168  -0.002384  31.385600  -0.001452  -0.000473  28.741400   0.438626   0.799865  40.278600  -0.004744   0.000858  26.825600  -0.004057  -0.005126  49.784500  -4.438400  -3.743670  74.894400  -0.005284  -0.010274  49.879700  -0.000748   0.000356  -4.445550  21.624800   5.886880  -0.846165   0.831140   2.679020   1.383530  -5.819600  -3.191640   0.000000   0.000000   0.000000  -0.276448  13.987800   1.079540  -5.289080  12.774200  -0.701667   3.671800  -9.273150   1.086260  -0.000000   0.000000   0.000000
  6.692090  88.893000   4.811230  -1.494060 -16.908300  -4.008290  -1.446190  10.992400   3.143120  -3.619680  21.881400   6.764960  -1.026000   0.435504   0.007556  -1.685850   0.882173   1.194160  -2.947980  -4.025940   1.914620 -67.611400  26.904500 -12.052300  -2.964240 -12.010800 -15.175200  17.590100  -4.031380   5.836360  35.707800  27.414100 -57.075500 -33.738200   0.004656   0.003145 -11.869100   0.001259  -0.009589 -32.472200   5.085230  -7.927490 -26.861400   0.000833   0.003237 -18.797600  -0.001050   0.001613 -28.747100  -0.195923   0.357167 -40.184500   0.000604   0.002115 -26.762900  -0.001467   0.001163 -28.689100  -0.195566   0.357362 -38.872000   0.002858  -0.004277 -25.888800   0.001812   0.001514 -31.223900  -0.211219   0.348383 -46.836900   0.000154  -0.002318 -31.193400  -0.003221  -0.000988   3.009840  -3.000540   7.944060  30.699200  -3.251220  59.912500 -44.767900 -19.626600  54.802400 -24.215000  38.060200  18.363600 -59.040400  54.333300 108.293000 -15.695000   0.000211   0.000111 -12.847500  -0.002087   0.003161  42.562300   7.292080   7.869530  35.234500   0.002101   0.001494  25.280600   0.000493   0.002319  31.401700   0.601310   0.985652  47.109800  -0.001152  -0.002344  31.375100  -0.001438  -0.000495  28.736900   0.555123   1.012380  40.288300  -0.004752   0.000780  26.832000  -0.004073  -0.005196  49.737300  -4.420010  -3.734300  74.822200  -0.005260  -0.010386  49.831600  -0.000696   0.000314  -4.645010  21.583600   5.998730  -0.841503   0.854880   2.678640   1.354940  -5.876220  -3.185240   0.000000   0.000000   0.000000  -0.503364  14.108900   1.153480  -5.186730  12.484500  -0.702241   3.579740  -9.171480   1.086000   0.000000   0.000000   0.000000
  6.619860  88.893900   4.864810  -1.448660 -16.837400  -4.034820  -1.438950  10.936400   3.135320  -3.595770  21.769700   6.744790  -1.032640   0.399283   0.006817  -1.696180   0.808665   1.166310  -3.003110  -3.997590   1.902310 -67.619700  26.774900 -12.072700  -2.901190 -11.940100 -15.247700  17.635100  -4.172900   5.874050  35.764400  27.418700 -56.966700 -33.709200   0.005084   0.003465 -11.854600   0.001261  -0.009439 -32.477100   5.070020  -7.903310 -26.861400   0.000916   0.002940 -18.798500  -0.000958   0.001696 -28.748400  -0.207741   0.378661 -40.236500   0.000842   0.001903 -26.797500  -0.001244   0.001314 -28.690000  -0.207355   0.378872 -38.885200   0.003081  -0.004276 -25.897700   0.002017   0.001647 -31.249000  -0.224087   0.369249 -46.874700  -0.000055  -0.002367 -31.218500  -0.003433  -0.001172   3.018330  -2.899460   8.004270  30.777500  -3.138820  59.943000 -44.798000 -19.407100  54.933000 -24.533600  38.048500  18.360300 -59.040400  54.333300 108.293000 -15.695000   0.000256   0.000168 -12.847500  -0.002088   0.003120  42.512300   7.378190   7.974560  35.206200   0.002120   0.001506  25.254200   0.000490   0.002285  31.345600   0.721508   1.184940  47.029400  -0.001143  -0.002317  31.321500  -0.001421  -0.000518  28.731600   0.666954   1.216460  40.160100  -0.004763   0.000728  26.746600  -0.004087  -0.005271  49.620100  -4.374240  -3.711110  74.642800  -0.005232  -0.010507  49.712100  -0.000652   0.000260  -4.650470  21.543100   6.037540  -0.833428   0.873665   2.672170   1.322470  -5.933850  -3.187260   0.000000   0.000000   0.000000  -0.498990  14.131700   1.150350  -5.140470  12.324600  -0.683438   3.491180  -9.105950   1.062850   0.000000   0.000000   0.000000
  6.538730  88.900000   4.913620  -1.439140 -16.753000  -4.045490  -1.413130  10.876900   3.117080  -3.536920  21.653800   6.697180  -1.044900   0.360236   0.006075  -1.716760   0.729492   1.159510  -3.059310  -3.971520   1.893400 -67.629600  26.664600 -12.090500  -2.845200 -11.888700 -15.303500  17.661400  -4.294120   5.913120  35.778500  27.447900 -56.905700 -33.690800   0.005527   0.003795 -11.845400   0.001273  -0.009364 -32.481200   5.062040  -7.890970 -26.861400   0.001017   0.002556 -18.800500  -0.000789   0.001759 -28.749700  -0.213505   0.389141 -40.272700   0.001126   0.001609 -26.821600  -0.000944   0.001473 -28.690900  -0.213104   0.389360 -38.889500   0.003303  -0.004270 -25.900500   0.002285   0.001749 -31.262600  -0.230358   0.379423 -46.895100  -0.000295  -0.002416 -31.232100  -0.003636  -0.001366   3.026430  -2.794930   8.070240  30.837700  -3.004980  59.999500 -44.873700 -19.230900  55.049800 -24.843400  38.037000  18.356000 -59.040400  54.333300 108.293000 -15.695000   0.000301   0.000225 -12.847500  -0.002089   0.003078  42.472800   7.426840   8.036810  35.178000   0.002137   0.001516  25.227800   0.000490   0.002254  31.304900   0.788838   1.296970  46.970800  -0.001134  -0.002290  31.282500  -0.001402  -0.000543  28.727900   0.729749   1.331080  40.006700  -0.004773   0.000679  26.644400  -0.004101  -0.005344  49.538300  -4.342310  -3.694940  74.517700  -0.005201  -0.010628  49.628700  -0.000609   0.000205  -4.612550  21.497000   6.041400  -0.822128   0.887839   2.661280   1.282320  -5.985320  -3.191080  -0.000000   0.000000   0.000000  -0.465531  14.154500   1.127720  -5.134780  12.202100  -0.651607   3.417080  -9.082370   1.015070   0.000000   0.000000  -0.000000
  6.446870  88.970000   4.958760  -1.589020 -16.655200  -4.048920  -1.329270  10.814100   3.089440  -3.356050  21.534600   6.618630  -1.058500   0.319720   0.005323  -1.738930   0.647580   1.171470  -3.114480  -3.950400   1.883630 -67.636300  26.586300 -12.106900  -2.799080 -11.860700 -15.330500  17.671400  -4.376820   5.949140  35.817400  27.555100 -56.957200 -33.685100   0.005759   0.003938 -11.842500   0.002945  -0.009879 -32.485100   5.067480  -7.899190 -26.864400   0.001077   0.002315 -18.804500  -0.000679   0.001799 -28.750600  -0.206939   0.377176 -40.294400   0.001295   0.001413 -26.836100  -0.000748   0.001556 -28.692000  -0.206547   0.377392 -38.891200   0.003411  -0.003186 -25.901600   0.002454   0.001814 -31.265500  -0.223289   0.367743 -46.899500  -0.000434  -0.002438 -31.235000  -0.003830  -0.001468   3.032480  -2.687600   8.138210  30.871200  -2.854360  60.095700 -44.980800 -19.095600  55.119700 -25.142900  38.066800  18.349300 -59.040400  54.333300 108.293000 -15.695000   0.000337   0.000188 -12.847500  -0.002093   0.003037  42.514200   7.396470   7.993230  35.207800   0.002153   0.001527  25.255700   0.000495   0.002232  31.317700   0.765138   1.257470  46.989200  -0.001119  -0.002253  31.294800  -0.001381  -0.000577  28.728000   0.707604   1.290690  39.983600  -0.004776   0.000612  26.629100  -0.004117  -0.005404  49.542600  -4.343990  -3.695830  74.524200  -0.005163  -0.010737  49.633100  -0.000562   0.000157  -4.380000  21.438300   5.989290  -0.806949   0.899112   2.648570   1.230200  -6.032780  -3.196080   0.000000   0.000000   0.000000  -0.224496  14.325700   1.048240  -5.181300  11.994600  -0.632086   3.367010  -9.121700   0.956135  -0.000000   0.000000  -0.000000
  6.342870  89.076400   4.994710  -1.878550 -16.550300  -4.052340  -1.204440  10.749500   3.057310  -3.086180  21.413900   6.524890  -1.070850   0.277495   0.004567  -1.759310   0.562245   1.193530  -3.170900  -3.932760   1.874500 -67.641600  26.527200 -12.119400  -2.760100 -11.844700 -15.336800  17.674600  -4.422950   5.982010  35.883800  27.701100 -57.070000 -33.684300   0.006475   0.004339 -11.842100   0.006381  -0.013484 -32.493400   5.075160  -7.907430 -26.872700   0.001272   0.001496 -18.810900  -0.000288   0.001813 -28.751200  -0.200373   0.365212 -40.311800   0.001849   0.000733 -26.847600  -0.000076   0.001810 -28.693100  -0.199989   0.365423 -38.892900   0.003735  -0.002107 -25.902700   0.003032   0.001839 -31.268500  -0.216220   0.356063 -46.903800  -0.000886  -0.002502 -31.237900  -0.004015  -0.001785   3.035350  -2.579050   8.208900  30.887300  -2.692590  60.219500 -45.105900 -18.981800  55.152900 -25.420900  38.138000  18.327800 -59.040400  54.333300 108.293000 -15.695000   0.000373   0.000151 -12.847500  -0.002100   0.002998  42.555600   7.366080   7.949650  35.237600   0.002172   0.001542  25.283600   0.000499   0.002208  31.330400   0.741437   1.217960  47.007600  -0.001102  -0.002214  31.307000  -0.001360  -0.000609  28.728100   0.685457   1.250290  39.973000  -0.004778   0.000539  26.622000  -0.004136  -0.005462  49.546800  -4.345660  -3.696720  74.530700  -0.005126  -0.010847  49.637500  -0.000512   0.000110  -3.994170  21.385300   5.891630  -0.789147   0.904217   2.640610   1.169220  -6.057560  -3.201060  -0.000000   0.000000   0.000000   0.181341  14.462800   0.929499  -5.270790  11.864700  -0.595538   3.338340  -9.208900   0.887982   0.000000   0.000000  -0.000000
